<mxfile host="app.diagrams.net" modified="2024-04-26T01:31:26.828Z" agent="Mozilla/5.0 (Windows NT 10.0; Win64; x64) AppleWebKit/537.36 (KHTML, like Gecko) Chrome/122.0.0.0 Safari/537.36 OPR/108.0.0.0" etag="xU2ArYFIuYHMgShzniUT" version="24.3.0" type="device">
  <diagram name="PÃ¡gina-1" id="UD_7jqDEE9uKhPENZ9Jv">
    <mxGraphModel dx="1278" dy="1325" grid="0" gridSize="10" guides="1" tooltips="1" connect="1" arrows="1" fold="1" page="0" pageScale="1" pageWidth="827" pageHeight="1169" math="0" shadow="0">
      <root>
        <mxCell id="0" />
        <mxCell id="1" parent="0" />
        <mxCell id="WR0e3_RjU1zle3sO9uso-6" value="&lt;p style=&quot;margin:0px;margin-top:4px;text-align:center;&quot;&gt;&lt;b&gt;Animal&lt;/b&gt;&lt;/p&gt;&lt;hr size=&quot;1&quot; style=&quot;border-style:solid;&quot;&gt;&lt;p style=&quot;margin:0px;margin-left:4px;&quot;&gt;&lt;span style=&quot;background-color: initial;&quot;&gt;+name: string&lt;/span&gt;&lt;br&gt;&lt;/p&gt;&lt;p style=&quot;margin:0px;margin-left:4px;&quot;&gt;+age: int&lt;/p&gt;&lt;p style=&quot;margin:0px;margin-left:4px;&quot;&gt;+color: string&lt;/p&gt;&lt;hr size=&quot;1&quot; style=&quot;border-style:solid;&quot;&gt;&lt;p style=&quot;margin:0px;margin-left:4px;&quot;&gt;&lt;span style=&quot;background-color: initial;&quot;&gt;+eat():&amp;nbsp;&lt;/span&gt;&lt;br&gt;&lt;/p&gt;&lt;p style=&quot;margin:0px;margin-left:4px;&quot;&gt;+hunt():&lt;/p&gt;&lt;p style=&quot;margin:0px;margin-left:4px;&quot;&gt;+getHungry()&lt;/p&gt;" style="verticalAlign=top;align=left;overflow=fill;html=1;whiteSpace=wrap;" vertex="1" parent="1">
          <mxGeometry x="-277" y="-480" width="297" height="168" as="geometry" />
        </mxCell>
        <mxCell id="WR0e3_RjU1zle3sO9uso-9" value="" style="edgeStyle=none;curved=1;rounded=0;orthogonalLoop=1;jettySize=auto;html=1;fontSize=12;startSize=8;endSize=8;" edge="1" parent="1" source="WR0e3_RjU1zle3sO9uso-16">
          <mxGeometry relative="1" as="geometry">
            <mxPoint x="270.25103734439836" y="-335" as="targetPoint" />
          </mxGeometry>
        </mxCell>
        <mxCell id="WR0e3_RjU1zle3sO9uso-7" value="getHungry()" style="strokeWidth=2;html=1;shape=mxgraph.flowchart.start_1;whiteSpace=wrap;" vertex="1" parent="1">
          <mxGeometry x="196" y="-473" width="147" height="95" as="geometry" />
        </mxCell>
        <mxCell id="WR0e3_RjU1zle3sO9uso-11" value="" style="edgeStyle=none;curved=1;rounded=0;orthogonalLoop=1;jettySize=auto;html=1;fontSize=12;startSize=8;endSize=8;exitX=0.025;exitY=0.44;exitDx=0;exitDy=0;exitPerimeter=0;entryX=1;entryY=0.5;entryDx=0;entryDy=0;" edge="1" parent="1" source="WR0e3_RjU1zle3sO9uso-16" target="WR0e3_RjU1zle3sO9uso-19">
          <mxGeometry relative="1" as="geometry">
            <mxPoint x="216" y="-305" as="sourcePoint" />
            <mxPoint x="167.5" y="-289.64049586776855" as="targetPoint" />
            <Array as="points" />
          </mxGeometry>
        </mxCell>
        <mxCell id="WR0e3_RjU1zle3sO9uso-12" value="no" style="edgeLabel;html=1;align=center;verticalAlign=middle;resizable=0;points=[];fontSize=12;" vertex="1" connectable="0" parent="WR0e3_RjU1zle3sO9uso-11">
          <mxGeometry x="0.0369" y="3" relative="1" as="geometry">
            <mxPoint as="offset" />
          </mxGeometry>
        </mxCell>
        <mxCell id="WR0e3_RjU1zle3sO9uso-13" style="edgeStyle=none;curved=1;rounded=0;orthogonalLoop=1;jettySize=auto;html=1;fontSize=12;startSize=8;endSize=8;exitX=0.5;exitY=1;exitDx=0;exitDy=0;exitPerimeter=0;" edge="1" parent="1" source="WR0e3_RjU1zle3sO9uso-16" target="WR0e3_RjU1zle3sO9uso-17">
          <mxGeometry relative="1" as="geometry">
            <mxPoint x="269" y="-161" as="targetPoint" />
            <mxPoint x="269" y="-281" as="sourcePoint" />
          </mxGeometry>
        </mxCell>
        <mxCell id="WR0e3_RjU1zle3sO9uso-21" value="yes" style="edgeLabel;html=1;align=center;verticalAlign=middle;resizable=0;points=[];fontSize=12;" vertex="1" connectable="0" parent="WR0e3_RjU1zle3sO9uso-13">
          <mxGeometry x="0.1307" y="3" relative="1" as="geometry">
            <mxPoint x="-2" y="-15" as="offset" />
          </mxGeometry>
        </mxCell>
        <mxCell id="WR0e3_RjU1zle3sO9uso-17" value="eat()" style="strokeWidth=2;html=1;shape=mxgraph.flowchart.start_1;whiteSpace=wrap;" vertex="1" parent="1">
          <mxGeometry x="213" y="-145" width="100" height="60" as="geometry" />
        </mxCell>
        <mxCell id="WR0e3_RjU1zle3sO9uso-18" style="edgeStyle=none;curved=1;rounded=0;orthogonalLoop=1;jettySize=auto;html=1;entryX=0;entryY=0.5;entryDx=0;entryDy=0;entryPerimeter=0;fontSize=12;startSize=8;endSize=8;exitX=0.5;exitY=1;exitDx=0;exitDy=0;" edge="1" parent="1" source="WR0e3_RjU1zle3sO9uso-19" target="WR0e3_RjU1zle3sO9uso-17">
          <mxGeometry relative="1" as="geometry" />
        </mxCell>
        <mxCell id="WR0e3_RjU1zle3sO9uso-19" value="hunt()" style="whiteSpace=wrap;html=1;strokeWidth=2;" vertex="1" parent="1">
          <mxGeometry x="44" y="-262" width="103" height="60" as="geometry" />
        </mxCell>
        <mxCell id="WR0e3_RjU1zle3sO9uso-22" value="" style="edgeStyle=none;curved=1;rounded=0;orthogonalLoop=1;jettySize=auto;html=1;fontSize=12;startSize=8;endSize=8;" edge="1" parent="1" source="WR0e3_RjU1zle3sO9uso-7" target="WR0e3_RjU1zle3sO9uso-16">
          <mxGeometry relative="1" as="geometry">
            <mxPoint x="270" y="-378" as="sourcePoint" />
            <mxPoint x="270.25103734439836" y="-335" as="targetPoint" />
          </mxGeometry>
        </mxCell>
        <mxCell id="WR0e3_RjU1zle3sO9uso-16" value="tiene comida?" style="strokeWidth=2;html=1;shape=mxgraph.flowchart.decision;whiteSpace=wrap;" vertex="1" parent="1">
          <mxGeometry x="216" y="-341" width="100" height="100" as="geometry" />
        </mxCell>
      </root>
    </mxGraphModel>
  </diagram>
</mxfile>
